<svg width="217" height="66" viewBox="0 0 217 66" fill="none" xmlns="http://www.w3.org/2000/svg">
<rect width="217" height="66" rx="33" fill="#70681D"/>
<path d="M38.832 26.504C38.352 26.168 37.944 25.832 37.608 25.496C37.296 25.136 37.032 24.752 36.816 24.344C36.6 23.936 36.42 23.492 36.276 23.012C36.132 22.532 36.012 22.004 35.916 21.428C35.58 21.164 35.04 20.996 34.296 20.924C33.552 20.852 32.796 20.816 32.028 20.816C31.404 20.816 30.864 20.828 30.408 20.852C29.952 20.876 29.556 20.888 29.22 20.888C29.004 21.488 28.86 22.52 28.788 23.984C28.716 25.424 28.68 27.08 28.68 28.952C28.68 29.96 28.68 30.992 28.68 32.048C28.704 33.104 28.716 34.148 28.716 35.18C28.74 36.212 28.752 37.22 28.752 38.204C28.776 39.164 28.788 40.064 28.788 40.904C29.508 41.072 30.096 41.228 30.552 41.372C31.008 41.492 31.452 41.6 31.884 41.696C32.316 41.768 32.808 41.84 33.36 41.912C33.912 41.96 34.644 42.008 35.556 42.056C35.604 41.864 35.628 41.456 35.628 40.832C35.652 40.184 35.664 39.44 35.664 38.6C35.664 37.664 35.652 36.884 35.628 36.26C35.628 35.636 35.604 35.012 35.556 34.388C35.244 34.388 34.98 34.364 34.764 34.316C34.572 34.244 34.332 34.172 34.044 34.1C33.78 34.028 33.42 33.956 32.964 33.884C32.532 33.812 31.944 33.752 31.2 33.704C31.296 33.536 31.416 33.32 31.56 33.056C31.704 32.768 31.848 32.468 31.992 32.156C32.136 31.844 32.256 31.556 32.352 31.292C32.472 31.004 32.556 30.764 32.604 30.572C33.516 30.764 34.404 30.908 35.268 31.004C36.156 31.1 36.996 31.148 37.788 31.148C38.604 31.148 39.348 31.1 40.02 31.004C40.692 30.884 41.256 30.692 41.712 30.428C41.64 30.62 41.508 30.896 41.316 31.256C41.148 31.592 40.968 31.964 40.776 32.372C40.584 32.756 40.416 33.14 40.272 33.524C40.128 33.908 40.056 34.244 40.056 34.532C40.128 35.54 40.188 36.512 40.236 37.448C40.284 38.384 40.332 39.236 40.38 40.004C40.452 40.748 40.512 41.372 40.56 41.876C40.608 42.38 40.668 42.704 40.74 42.848C39.612 43.112 38.544 43.52 37.536 44.072C36.528 44.648 35.352 45.5 34.008 46.628C32.952 45.98 31.824 45.428 30.624 44.972C29.424 44.516 28.236 44.12 27.06 43.784C25.908 43.424 24.792 43.112 23.712 42.848C22.656 42.584 21.732 42.32 20.94 42.056C21.324 41.96 21.648 41.732 21.912 41.372C22.2 40.988 22.428 40.52 22.596 39.968C22.788 39.416 22.932 38.804 23.028 38.132C23.124 37.436 23.172 36.74 23.172 36.044C23.172 34.964 23.052 33.932 22.812 32.948C22.596 31.964 22.284 31.22 21.876 30.716C22.26 30.332 22.572 29.828 22.812 29.204C23.076 28.556 23.28 27.872 23.424 27.152C23.568 26.408 23.664 25.652 23.712 24.884C23.76 24.116 23.784 23.396 23.784 22.724C23.784 22.172 23.772 21.692 23.748 21.284C23.724 20.876 23.7 20.564 23.676 20.348C23.124 20.156 22.548 19.76 21.948 19.16C21.372 18.56 20.94 17.912 20.652 17.216C22.188 17.384 23.64 17.504 25.008 17.576C26.4 17.624 27.708 17.648 28.932 17.648C31.596 17.648 33.78 17.564 35.484 17.396C37.188 17.228 38.508 17.144 39.444 17.144C39.636 17.144 39.804 17.156 39.948 17.18C40.092 17.18 40.224 17.192 40.344 17.216C40.248 17.432 40.14 17.804 40.02 18.332C39.924 18.836 39.816 19.412 39.696 20.06C39.576 20.684 39.468 21.356 39.372 22.076C39.276 22.772 39.18 23.432 39.084 24.056C39.012 24.656 38.952 25.184 38.904 25.64C38.856 26.096 38.832 26.384 38.832 26.504ZM51.4452 45.152C50.9892 44.816 50.4252 44.504 49.7532 44.216C49.0812 43.928 48.3852 43.688 47.6652 43.496C46.9692 43.28 46.2852 43.112 45.6132 42.992C44.9652 42.872 44.4252 42.812 43.9932 42.812C44.1852 42.5 44.3532 42.068 44.4972 41.516C44.6412 40.94 44.7492 40.328 44.8212 39.68C44.9172 39.008 44.9772 38.324 45.0012 37.628C45.0492 36.932 45.0732 36.296 45.0732 35.72C45.0732 34.256 44.9772 33.044 44.7852 32.084C44.6172 31.1 44.4492 30.332 44.2812 29.78C45.3132 29.588 46.2492 29.216 47.0892 28.664C47.9532 28.112 48.8052 27.416 49.6452 26.576C50.6292 26.768 51.8412 26.936 53.2812 27.08C54.7212 27.2 56.1492 27.284 57.5652 27.332C57.4932 27.764 57.4572 28.304 57.4572 28.952C57.4572 29.456 57.4812 30.008 57.5292 30.608C57.5772 31.184 57.6372 31.76 57.7092 32.336C57.7812 32.912 57.8772 33.464 57.9972 33.992C58.1172 34.52 58.2492 34.976 58.3932 35.36C56.9292 35.48 55.4412 35.648 53.9292 35.864C52.4172 36.056 50.9412 36.272 49.5012 36.512C49.4772 37.208 49.4292 37.892 49.3572 38.564C49.2852 39.236 49.2252 39.824 49.1772 40.328C49.4652 40.448 49.8252 40.556 50.2572 40.652C50.7132 40.748 51.1932 40.844 51.6972 40.94C52.2012 41.012 52.6932 41.084 53.1732 41.156C53.6532 41.204 54.0612 41.24 54.3972 41.264C54.5172 40.52 54.8052 39.884 55.2612 39.356C55.7412 38.828 56.5452 38.396 57.6732 38.06C57.6492 38.348 57.6372 38.636 57.6372 38.924C57.6372 39.188 57.6372 39.452 57.6372 39.716C57.6372 40.532 57.6612 41.18 57.7092 41.66C57.7812 42.116 57.9012 42.572 58.0692 43.028C57.6132 43.076 57.0732 43.172 56.4492 43.316C55.8252 43.436 55.2012 43.604 54.5772 43.82C53.9532 44.012 53.3532 44.216 52.7772 44.432C52.2252 44.672 51.7812 44.912 51.4452 45.152ZM49.1412 29.816C49.2612 30.824 49.3452 31.712 49.3932 32.48C49.4652 33.248 49.5132 33.956 49.5372 34.604L53.7492 33.56C53.6292 33.08 53.5212 32.576 53.4252 32.048C53.3532 31.52 53.3172 30.98 53.3172 30.428C52.7652 30.428 52.0932 30.38 51.3012 30.284C50.5332 30.164 49.8132 30.008 49.1412 29.816ZM67.427 30.176V38.132C67.427 39.38 67.727 40.316 68.327 40.94C68.951 41.564 69.719 41.9 70.631 41.948V42.452C70.223 42.596 69.791 42.776 69.335 42.992C68.879 43.208 68.435 43.436 68.003 43.676C67.571 43.892 67.163 44.12 66.779 44.36C66.395 44.6 66.095 44.816 65.879 45.008C65.327 44.672 64.763 44.348 64.187 44.036C63.611 43.724 63.131 43.472 62.747 43.28V29.888H59.759V29.492C60.815 29.084 61.811 28.46 62.747 27.62V26.468C62.747 26.276 62.723 25.976 62.675 25.568C62.651 25.136 62.615 24.704 62.567 24.272C62.519 23.816 62.459 23.408 62.387 23.048C62.315 22.664 62.231 22.412 62.135 22.292C63.215 22.22 64.211 22.004 65.123 21.644C66.035 21.284 67.007 20.828 68.039 20.276C67.943 20.516 67.859 20.888 67.787 21.392C67.715 21.896 67.643 22.436 67.571 23.012C67.523 23.564 67.487 24.104 67.463 24.632C67.439 25.136 67.427 25.496 67.427 25.712V27.62H72.503V27.764C72.119 28.172 71.771 28.628 71.459 29.132C71.171 29.636 70.967 30.128 70.847 30.608L67.427 30.176ZM86.6245 40.616C87.1525 40.664 87.6925 40.7 88.2445 40.724C88.8205 40.748 89.5285 40.856 90.3685 41.048V35.972C89.6725 36.236 89.0005 36.464 88.3525 36.656C87.7045 36.824 87.1525 36.932 86.6965 36.98L86.6245 40.616ZM95.9125 29.132C95.5285 29.684 95.2765 30.416 95.1565 31.328C95.0605 32.24 95.0125 33.572 95.0125 35.324C95.0125 36.476 95.0365 37.4 95.0845 38.096C95.1565 38.768 95.2525 39.308 95.3725 39.716C95.4925 40.1 95.6605 40.376 95.8765 40.544C96.0925 40.688 96.3565 40.796 96.6685 40.868V41.264C96.3325 41.384 95.9725 41.6 95.5885 41.912C95.2285 42.2 94.8685 42.524 94.5085 42.884C94.1485 43.244 93.8245 43.616 93.5365 44C93.2485 44.384 93.0325 44.72 92.8885 45.008C92.3845 44.672 91.9285 44.228 91.5205 43.676C91.1125 43.124 90.7885 42.572 90.5485 42.02L88.0645 45.008C87.1525 44.456 86.1445 44.036 85.0405 43.748C83.9605 43.46 82.7245 43.304 81.3325 43.28C81.5725 42.656 81.7165 41.876 81.7645 40.94C81.8125 39.98 81.8365 39.02 81.8365 38.06C81.8365 37.484 81.8005 36.944 81.7285 36.44C81.6565 35.912 81.5365 35.444 81.3685 35.036C81.8965 35.108 82.4725 35.144 83.0965 35.144C83.7685 35.144 84.4525 35.12 85.1485 35.072C85.8685 35 86.5525 34.904 87.2005 34.784C87.8485 34.664 88.4365 34.532 88.9645 34.388C89.5165 34.22 89.9725 34.04 90.3325 33.848V30.284C89.5165 30.644 88.6645 30.944 87.7765 31.184C86.8885 31.424 86.1565 31.544 85.5805 31.544C85.1725 31.544 84.7885 31.508 84.4285 31.436C84.0925 31.34 83.7805 31.172 83.4925 30.932C83.2045 30.668 82.9405 30.308 82.7005 29.852C82.4845 29.396 82.2925 28.808 82.1245 28.088C82.2685 28.088 82.3645 28.1 82.4125 28.124C82.4845 28.124 82.6645 28.124 82.9525 28.124C84.6805 28.124 86.1685 27.968 87.4165 27.656C88.6645 27.344 89.6365 26.984 90.3325 26.576C91.1245 27.44 91.9405 28.088 92.7805 28.52C93.6445 28.928 94.6885 29.132 95.9125 29.132ZM106.934 30.968C107.246 30.632 107.522 30.212 107.762 29.708C108.026 29.18 108.254 28.616 108.446 28.016C108.638 27.392 108.782 26.744 108.878 26.072C108.998 25.4 109.058 24.74 109.058 24.092C109.058 22.988 108.89 21.944 108.554 20.96C108.218 19.976 107.666 19.256 106.898 18.8C107.642 18.752 108.446 18.656 109.31 18.512C110.198 18.368 111.086 18.188 111.974 17.972C112.862 17.756 113.714 17.528 114.53 17.288C115.346 17.024 116.066 16.748 116.69 16.46C117.482 16.58 118.418 16.784 119.498 17.072C120.602 17.336 121.694 17.612 122.774 17.9C123.854 18.188 124.838 18.452 125.726 18.692C126.638 18.932 127.298 19.064 127.706 19.088C127.37 19.64 127.13 20.336 126.986 21.176C126.842 21.992 126.77 22.844 126.77 23.732C126.77 25.076 126.938 26.42 127.274 27.764C127.61 29.084 128.09 30.164 128.714 31.004C128.114 31.748 127.622 32.768 127.238 34.064C126.854 35.336 126.662 36.656 126.662 38.024C126.662 39.128 126.83 40.16 127.166 41.12C127.502 42.08 128.054 42.8 128.822 43.28C128.198 43.328 127.526 43.412 126.806 43.532C126.086 43.628 125.342 43.76 124.574 43.928C123.83 44.072 123.086 44.24 122.342 44.432C121.622 44.624 120.938 44.828 120.29 45.044C120.53 45.572 120.794 46.088 121.082 46.592C121.394 47.12 121.754 47.576 122.162 47.96C122.426 47.792 122.666 47.6 122.882 47.384C123.098 47.192 123.326 46.964 123.566 46.7C123.878 47.876 124.286 48.98 124.79 50.012C125.294 51.044 126.074 51.992 127.13 52.856C125.45 52.352 123.962 51.776 122.666 51.128C121.394 50.48 120.266 49.796 119.282 49.076C118.322 48.38 117.494 47.66 116.798 46.916C116.102 46.196 115.514 45.488 115.034 44.792C114.314 44.6 113.594 44.396 112.874 44.18C112.154 43.988 111.47 43.808 110.822 43.64C110.198 43.472 109.634 43.328 109.13 43.208C108.65 43.088 108.278 43.016 108.014 42.992C108.35 42.68 108.578 42.176 108.698 41.48C108.842 40.76 108.914 39.944 108.914 39.032C108.914 38.192 108.854 37.316 108.734 36.404C108.638 35.468 108.494 34.616 108.302 33.848C108.134 33.056 107.93 32.396 107.69 31.868C107.45 31.34 107.198 31.04 106.934 30.968ZM113.414 39.932C113.846 40.172 114.242 40.388 114.602 40.58C114.962 40.772 115.322 40.952 115.682 41.12C116.066 41.264 116.474 41.396 116.906 41.516C117.338 41.636 117.83 41.744 118.382 41.84C119.39 41.336 120.194 41.012 120.794 40.868C121.394 40.7 121.79 40.556 121.982 40.436C122.03 38.108 122.066 35.672 122.09 33.128C122.138 30.56 122.162 28.124 122.162 25.82C122.162 25.22 122.162 24.632 122.162 24.056C122.162 23.456 122.138 22.88 122.09 22.328C121.658 22.088 121.262 21.872 120.902 21.68C120.542 21.488 120.17 21.32 119.786 21.176C119.426 21.008 119.03 20.864 118.598 20.744C118.19 20.624 117.71 20.516 117.158 20.42C116.15 20.924 115.334 21.272 114.71 21.464C114.11 21.656 113.714 21.812 113.522 21.932C113.498 22.532 113.474 23.264 113.45 24.128C113.426 24.968 113.402 25.88 113.378 26.864C113.378 27.848 113.378 28.88 113.378 29.96C113.378 31.04 113.378 32.096 113.378 33.128C113.378 34.208 113.378 35.372 113.378 36.62C113.402 37.868 113.414 38.972 113.414 39.932ZM130.961 28.052C131.465 28.004 132.029 27.932 132.653 27.836C133.277 27.716 133.901 27.584 134.525 27.44C135.149 27.296 135.725 27.152 136.253 27.008C136.781 26.84 137.201 26.684 137.513 26.54C137.465 26.948 137.417 27.32 137.369 27.656C137.345 27.992 137.321 28.352 137.297 28.736C137.297 29.12 137.285 29.54 137.261 29.996C137.261 30.452 137.261 30.992 137.261 31.616V38.888L138.773 40.04L142.229 38.528V32.912C142.229 32.096 142.205 31.424 142.157 30.896C142.133 30.368 142.061 29.948 141.941 29.636C141.821 29.324 141.653 29.096 141.437 28.952C141.245 28.784 140.969 28.652 140.609 28.556V28.088C141.761 28.016 142.889 27.848 143.993 27.584C145.121 27.32 146.093 26.984 146.909 26.576V35.072C146.909 36.2 146.933 37.124 146.981 37.844C147.029 38.54 147.113 39.104 147.233 39.536C147.353 39.968 147.509 40.28 147.701 40.472C147.917 40.664 148.193 40.796 148.529 40.868V41.264C148.217 41.408 147.869 41.624 147.485 41.912C147.101 42.2 146.729 42.524 146.369 42.884C146.009 43.244 145.685 43.616 145.397 44C145.109 44.36 144.893 44.696 144.749 45.008C143.957 44.336 143.381 43.712 143.021 43.136C142.685 42.56 142.457 41.852 142.337 41.012C141.617 41.372 140.981 41.708 140.429 42.02C139.901 42.332 139.409 42.644 138.953 42.956C138.521 43.268 138.113 43.592 137.729 43.928C137.369 44.264 136.997 44.624 136.613 45.008C136.133 44.576 135.701 44.216 135.317 43.928C134.957 43.616 134.597 43.34 134.237 43.1C133.901 42.86 133.553 42.644 133.193 42.452C132.857 42.236 132.472 42.008 132.041 41.768C132.137 41.624 132.221 41.3 132.293 40.796C132.389 40.292 132.473 39.68 132.545 38.96C132.617 38.24 132.665 37.472 132.688 36.656C132.737 35.816 132.761 35.012 132.761 34.244C132.761 33.38 132.725 32.636 132.653 32.012C132.605 31.364 132.509 30.812 132.365 30.356C132.221 29.9 132.029 29.528 131.789 29.24C131.573 28.928 131.285 28.664 130.925 28.448L130.961 28.052ZM157.106 26.576C158.762 27.128 160.142 27.5 161.246 27.692C162.35 27.884 163.37 27.98 164.306 27.98C164.834 27.98 165.23 27.98 165.494 27.98C165.782 27.956 166.058 27.92 166.322 27.872C166.034 29.432 165.89 31.268 165.89 33.38C165.89 35.972 166.106 38.492 166.538 40.94C165.938 41.012 165.302 41.168 164.63 41.408C163.958 41.648 163.286 41.948 162.614 42.308C161.942 42.668 161.294 43.088 160.67 43.568C160.046 44.024 159.482 44.504 158.978 45.008C158.714 44.792 158.258 44.564 157.61 44.324C156.962 44.108 156.254 43.904 155.486 43.712C154.718 43.52 153.95 43.364 153.182 43.244C152.414 43.124 151.778 43.064 151.274 43.064C151.13 43.064 150.986 43.076 150.842 43.1C150.722 43.1 150.602 43.112 150.482 43.136C150.818 42.848 151.058 42.284 151.202 41.444C151.37 40.58 151.454 39.464 151.454 38.096C151.454 37.4 151.43 36.644 151.382 35.828C151.334 34.988 151.262 34.196 151.166 33.452C151.094 32.708 151.01 32.072 150.914 31.544C150.818 31.016 150.722 30.692 150.626 30.572C151.562 30.404 152.606 29.972 153.758 29.276C154.91 28.556 156.026 27.656 157.106 26.576ZM161.426 31.148C160.322 31.052 159.242 30.896 158.186 30.68C157.13 30.44 156.326 30.176 155.774 29.888C155.894 30.896 155.978 31.844 156.026 32.732C156.074 33.596 156.098 34.472 156.098 35.36C156.098 36.056 156.074 36.848 156.026 37.736C156.002 38.6 155.966 39.452 155.918 40.292C156.734 40.388 157.634 40.52 158.618 40.688C159.602 40.856 160.514 41.072 161.354 41.336L161.426 31.148ZM175.673 30.176V38.132C175.673 39.38 175.973 40.316 176.573 40.94C177.197 41.564 177.965 41.9 178.877 41.948V42.452C178.469 42.596 178.037 42.776 177.581 42.992C177.125 43.208 176.681 43.436 176.249 43.676C175.817 43.892 175.409 44.12 175.025 44.36C174.641 44.6 174.341 44.816 174.125 45.008C173.573 44.672 173.009 44.348 172.433 44.036C171.857 43.724 171.377 43.472 170.993 43.28V29.888H168.005V29.492C169.061 29.084 170.057 28.46 170.993 27.62V26.468C170.993 26.276 170.969 25.976 170.921 25.568C170.897 25.136 170.861 24.704 170.813 24.272C170.765 23.816 170.705 23.408 170.633 23.048C170.561 22.664 170.477 22.412 170.381 22.292C171.461 22.22 172.457 22.004 173.369 21.644C174.281 21.284 175.253 20.828 176.285 20.276C176.189 20.516 176.105 20.888 176.033 21.392C175.961 21.896 175.889 22.436 175.817 23.012C175.769 23.564 175.733 24.104 175.709 24.632C175.685 25.136 175.673 25.496 175.673 25.712V27.62H180.749V27.764C180.365 28.172 180.017 28.628 179.705 29.132C179.417 29.636 179.213 30.128 179.093 30.608L175.673 30.176ZM188.801 45.152C188.345 44.816 187.781 44.504 187.109 44.216C186.437 43.928 185.741 43.688 185.021 43.496C184.325 43.28 183.641 43.112 182.969 42.992C182.321 42.872 181.781 42.812 181.349 42.812C181.541 42.5 181.709 42.068 181.853 41.516C181.997 40.94 182.105 40.328 182.177 39.68C182.273 39.008 182.333 38.324 182.357 37.628C182.405 36.932 182.429 36.296 182.429 35.72C182.429 34.256 182.333 33.044 182.141 32.084C181.973 31.1 181.805 30.332 181.637 29.78C182.669 29.588 183.605 29.216 184.445 28.664C185.309 28.112 186.161 27.416 187.001 26.576C187.985 26.768 189.197 26.936 190.637 27.08C192.077 27.2 193.505 27.284 194.921 27.332C194.849 27.764 194.813 28.304 194.813 28.952C194.813 29.456 194.837 30.008 194.885 30.608C194.933 31.184 194.993 31.76 195.065 32.336C195.137 32.912 195.233 33.464 195.353 33.992C195.473 34.52 195.605 34.976 195.749 35.36C194.285 35.48 192.797 35.648 191.285 35.864C189.773 36.056 188.297 36.272 186.857 36.512C186.833 37.208 186.785 37.892 186.713 38.564C186.641 39.236 186.581 39.824 186.533 40.328C186.821 40.448 187.181 40.556 187.613 40.652C188.069 40.748 188.549 40.844 189.053 40.94C189.557 41.012 190.049 41.084 190.529 41.156C191.009 41.204 191.417 41.24 191.753 41.264C191.873 40.52 192.161 39.884 192.617 39.356C193.097 38.828 193.901 38.396 195.029 38.06C195.005 38.348 194.993 38.636 194.993 38.924C194.993 39.188 194.993 39.452 194.993 39.716C194.993 40.532 195.017 41.18 195.065 41.66C195.137 42.116 195.257 42.572 195.425 43.028C194.969 43.076 194.429 43.172 193.805 43.316C193.181 43.436 192.557 43.604 191.933 43.82C191.309 44.012 190.709 44.216 190.133 44.432C189.581 44.672 189.137 44.912 188.801 45.152ZM186.497 29.816C186.617 30.824 186.701 31.712 186.749 32.48C186.821 33.248 186.869 33.956 186.893 34.604L191.105 33.56C190.985 33.08 190.877 32.576 190.781 32.048C190.709 31.52 190.673 30.98 190.673 30.428C190.121 30.428 189.449 30.38 188.657 30.284C187.889 30.164 187.169 30.008 186.497 29.816Z" fill="white"/>
</svg>
